<?xml version="1.0" encoding="UTF-8"?>
<svg width="200" height="200" viewBox="0 0 200 200" xmlns="http://www.w3.org/2000/svg">
    <defs>
        <!-- Modern gradient with vibrant colors -->
        <linearGradient id="techGradient" x1="0%" y1="0%" x2="100%" y2="100%">
            <stop offset="0%" style="stop-color:#6366f1"/>
            <stop offset="50%" style="stop-color:#8b5cf6"/>
            <stop offset="100%" style="stop-color:#d946ef"/>
        </linearGradient>
        
        <!-- Glow effects -->
        <filter id="softGlow">
            <feGaussianBlur stdDeviation="2" result="blur"/>
            <feComposite in="SourceGraphic" in2="blur" operator="over"/>
        </filter>
        
        <!-- Circuit pattern -->
        <pattern id="circuitPattern" x="0" y="0" width="20" height="20" patternUnits="userSpaceOnUse">
            <path d="M5 5h10v10h-10z" fill="none" stroke="rgba(255,255,255,0.1)" stroke-width="0.5"/>
        </pattern>
    </defs>

    <!-- Background elements -->
    <circle cx="100" cy="100" r="95" fill="url(#circuitPattern)"/>
    <circle cx="100" cy="100" r="90" fill="none" stroke="url(#techGradient)" stroke-width="2"/>

    <!-- Main logo shape - abstract P -->
    <path d="M65 50
             C65 50, 135 50, 135 85
             C135 120, 65 120, 65 120
             L65 150"
          fill="none"
          stroke="url(#techGradient)"
          stroke-width="15"
          stroke-linecap="round"
          filter="url(#softGlow)"/>

    <!-- Tech accents -->
    <circle cx="135" cy="85" r="8" fill="url(#techGradient)" filter="url(#softGlow)"/>
    <path d="M135 85 L160 85" stroke="url(#techGradient)" stroke-width="3"/>
    <circle cx="160" cy="85" r="4" fill="url(#techGradient)"/>

    <!-- Dynamic elements -->
    <g transform="rotate(-45 100 100)">
        <path d="M40 100 L60 100" stroke="url(#techGradient)" stroke-width="2"/>
        <path d="M140 100 L160 100" stroke="url(#techGradient)" stroke-width="2"/>
        <circle cx="40" cy="100" r="3" fill="url(#techGradient)"/>
        <circle cx="160" cy="100" r="3" fill="url(#techGradient)"/>
    </g>

    <!-- Decorative rings -->
    <circle cx="100" cy="100" r="70" 
            fill="none" 
            stroke="rgba(99, 102, 241, 0.1)" 
            stroke-width="1"
            stroke-dasharray="4 4"/>
    <circle cx="100" cy="100" r="80" 
            fill="none" 
            stroke="rgba(139, 92, 246, 0.1)" 
            stroke-width="1"
            stroke-dasharray="4 4"/>
</svg>
